<mxfile host="app.diagrams.net" modified="2022-03-02T10:14:29.603Z" agent="5.0 (Windows NT 10.0; Win64; x64) AppleWebKit/537.36 (KHTML, like Gecko) Chrome/98.0.4758.102 Safari/537.36" etag="HHvHHs6uRoK106KqlJeC" version="16.4.6" type="github">
  <diagram id="nuRA4hduTNOBmzphRDFL" name="Page-1">
    <mxGraphModel dx="1422" dy="762" grid="1" gridSize="10" guides="1" tooltips="1" connect="1" arrows="1" fold="1" page="1" pageScale="1" pageWidth="827" pageHeight="1169" math="0" shadow="0">
      <root>
        <mxCell id="0" />
        <mxCell id="1" parent="0" />
        <mxCell id="-rjAJHLTLCYnk1fCZFQO-21" value="" style="rounded=0;whiteSpace=wrap;html=1;dashed=1;" vertex="1" parent="1">
          <mxGeometry x="231" y="534" width="378" height="98" as="geometry" />
        </mxCell>
        <mxCell id="-rjAJHLTLCYnk1fCZFQO-2" value="Kubernetes" style="rounded=1;whiteSpace=wrap;html=1;fillColor=#d5e8d4;strokeColor=#82b366;" vertex="1" parent="1">
          <mxGeometry x="240" y="541" width="360" height="40" as="geometry" />
        </mxCell>
        <mxCell id="-rjAJHLTLCYnk1fCZFQO-3" value="公有云" style="rounded=1;whiteSpace=wrap;html=1;fillColor=#ffe6cc;strokeColor=#d79b00;" vertex="1" parent="1">
          <mxGeometry x="240" y="585" width="170" height="40" as="geometry" />
        </mxCell>
        <mxCell id="-rjAJHLTLCYnk1fCZFQO-4" value="私有云/local" style="rounded=1;whiteSpace=wrap;html=1;fillColor=#ffe6cc;strokeColor=#d79b00;" vertex="1" parent="1">
          <mxGeometry x="430" y="585" width="170" height="40" as="geometry" />
        </mxCell>
        <mxCell id="-rjAJHLTLCYnk1fCZFQO-5" value="Kubeflow" style="rounded=1;whiteSpace=wrap;html=1;fillColor=#f8cecc;strokeColor=#b85450;" vertex="1" parent="1">
          <mxGeometry x="370" y="490" width="230" height="40" as="geometry" />
        </mxCell>
        <mxCell id="-rjAJHLTLCYnk1fCZFQO-6" value="Docker/Container" style="rounded=1;whiteSpace=wrap;html=1;fillColor=#f8cecc;strokeColor=#b85450;" vertex="1" parent="1">
          <mxGeometry x="240" y="490" width="120" height="40" as="geometry" />
        </mxCell>
        <mxCell id="-rjAJHLTLCYnk1fCZFQO-7" value="TensorFlow" style="rounded=1;whiteSpace=wrap;html=1;fillColor=#e1d5e7;strokeColor=#9673a6;" vertex="1" parent="1">
          <mxGeometry x="240" y="440" width="80" height="40" as="geometry" />
        </mxCell>
        <mxCell id="-rjAJHLTLCYnk1fCZFQO-8" value="PyTorch" style="rounded=1;whiteSpace=wrap;html=1;fillColor=#e1d5e7;strokeColor=#9673a6;" vertex="1" parent="1">
          <mxGeometry x="333.5" y="440" width="80" height="40" as="geometry" />
        </mxCell>
        <mxCell id="-rjAJHLTLCYnk1fCZFQO-9" value="scikit-learn" style="rounded=1;whiteSpace=wrap;html=1;fillColor=#e1d5e7;strokeColor=#9673a6;" vertex="1" parent="1">
          <mxGeometry x="430" y="440" width="80" height="40" as="geometry" />
        </mxCell>
        <mxCell id="-rjAJHLTLCYnk1fCZFQO-10" value="XGBoost" style="rounded=1;whiteSpace=wrap;html=1;fillColor=#e1d5e7;strokeColor=#9673a6;" vertex="1" parent="1">
          <mxGeometry x="520" y="440" width="80" height="40" as="geometry" />
        </mxCell>
        <mxCell id="-rjAJHLTLCYnk1fCZFQO-11" value="MXNet" style="rounded=1;whiteSpace=wrap;html=1;fillColor=#e1d5e7;strokeColor=#9673a6;" vertex="1" parent="1">
          <mxGeometry x="240" y="390" width="80" height="40" as="geometry" />
        </mxCell>
        <mxCell id="-rjAJHLTLCYnk1fCZFQO-12" value="MPI" style="rounded=1;whiteSpace=wrap;html=1;fillColor=#e1d5e7;strokeColor=#9673a6;" vertex="1" parent="1">
          <mxGeometry x="334" y="390" width="80" height="40" as="geometry" />
        </mxCell>
        <mxCell id="-rjAJHLTLCYnk1fCZFQO-13" value="Jupyter" style="rounded=1;whiteSpace=wrap;html=1;fillColor=#e1d5e7;strokeColor=#9673a6;" vertex="1" parent="1">
          <mxGeometry x="430" y="390" width="80" height="40" as="geometry" />
        </mxCell>
        <mxCell id="-rjAJHLTLCYnk1fCZFQO-14" value="Chainer" style="rounded=1;whiteSpace=wrap;html=1;fillColor=#e1d5e7;strokeColor=#9673a6;" vertex="1" parent="1">
          <mxGeometry x="520" y="390" width="80" height="40" as="geometry" />
        </mxCell>
        <mxCell id="-rjAJHLTLCYnk1fCZFQO-15" value="模型服务 API&amp;nbsp;" style="rounded=1;whiteSpace=wrap;html=1;fillColor=#dae8fc;strokeColor=#6c8ebf;" vertex="1" parent="1">
          <mxGeometry x="460" y="280" width="140" height="105" as="geometry" />
        </mxCell>
        <mxCell id="-rjAJHLTLCYnk1fCZFQO-17" value="模型监控" style="rounded=1;whiteSpace=wrap;html=1;fillColor=#dae8fc;strokeColor=#6c8ebf;" vertex="1" parent="1">
          <mxGeometry x="350" y="280" width="100" height="50" as="geometry" />
        </mxCell>
        <mxCell id="-rjAJHLTLCYnk1fCZFQO-18" value="模型发布" style="rounded=1;whiteSpace=wrap;html=1;fillColor=#dae8fc;strokeColor=#6c8ebf;" vertex="1" parent="1">
          <mxGeometry x="240" y="280" width="100" height="50" as="geometry" />
        </mxCell>
        <mxCell id="-rjAJHLTLCYnk1fCZFQO-19" value="模型Pipeline" style="rounded=1;whiteSpace=wrap;html=1;fillColor=#dae8fc;strokeColor=#6c8ebf;" vertex="1" parent="1">
          <mxGeometry x="240" y="335" width="100" height="50" as="geometry" />
        </mxCell>
        <mxCell id="-rjAJHLTLCYnk1fCZFQO-20" value="模型管理（版本、状态）" style="rounded=1;whiteSpace=wrap;html=1;fillColor=#dae8fc;strokeColor=#6c8ebf;" vertex="1" parent="1">
          <mxGeometry x="350" y="335" width="100" height="50" as="geometry" />
        </mxCell>
      </root>
    </mxGraphModel>
  </diagram>
</mxfile>
